<svg xmlns="http://www.w3.org/2000/svg" viewBox="0 0 490 490">
	<path fill="#a0b1c3" d="M224.1 457l208.3-208.3c47.9-47.9 47.9-125.9 0-173.8-47.9-47.9-125.9-47.9-173.8 0L47.3 286.3c-35.3 35.3-35.3 92.7 0 128s92.7 35.3 128 0L358 231.6c31.7-35.1 11-71.3 0-82.3s-48.4-32-82.3 0L96 329l-14.7-14.7L261 134.7c49.1-43.7 96.8-14.9 111.7 0 14.9 14.9 44.2 62.8 0 111.7L190 429c-43.4 43.4-114.1 43.4-157.5 0-43.4-43.4-43.4-114 0-157.4L243.9 60.3c56-56 147.2-56 203.2 0 69.2 69.2 43.8 166.9 0 203.2L238.8 471.8 224.1 457z"/>
</svg>
